<svg width="32" height="33" viewBox="0 0 32 33" fill="none" xmlns="http://www.w3.org/2000/svg">
<path d="M16 0.380981C7.16352 0.380981 0 7.5445 0 16.381C0 23.8843 5.16608 30.1807 12.135 31.9099V21.2706H8.83584V16.381H12.135V14.2741C12.135 8.82834 14.5997 6.30418 19.9462 6.30418C20.96 6.30418 22.7091 6.50322 23.4246 6.70162V11.1336C23.047 11.0939 22.391 11.0741 21.5763 11.0741C18.953 11.0741 17.9392 12.068 17.9392 14.6517V16.381H23.1654L22.2675 21.2706H17.9392V32.2639C25.8618 31.3071 32.0006 24.5615 32.0006 16.381C32 7.5445 24.8365 0.380981 16 0.380981Z" fill="black"/>
</svg>
