<svg width="32" height="33" viewBox="0 0 32 33" fill="none" xmlns="http://www.w3.org/2000/svg">
<g clip-path="url(#clip0_2279_298)">
<path d="M16 3.26223C20.275 3.26223 20.7813 3.28098 22.4625 3.35598C24.025 3.42473 24.8688 3.68723 25.4313 3.90598C26.175 4.19348 26.7125 4.54348 27.2688 5.09973C27.8313 5.66223 28.175 6.19348 28.4625 6.93723C28.6813 7.49973 28.9438 8.34973 29.0125 9.90598C29.0875 11.5935 29.1063 12.0997 29.1063 16.3685C29.1063 20.6435 29.0875 21.1497 29.0125 22.831C28.9438 24.3935 28.6813 25.2372 28.4625 25.7997C28.175 26.5435 27.825 27.081 27.2688 27.6372C26.7063 28.1997 26.175 28.5435 25.4313 28.831C24.8688 29.0497 24.0188 29.3122 22.4625 29.381C20.775 29.456 20.2688 29.4747 16 29.4747C11.725 29.4747 11.2188 29.456 9.5375 29.381C7.975 29.3122 7.13125 29.0497 6.56875 28.831C5.825 28.5435 5.2875 28.1935 4.73125 27.6372C4.16875 27.0747 3.825 26.5435 3.5375 25.7997C3.31875 25.2372 3.05625 24.3872 2.9875 22.831C2.9125 21.1435 2.89375 20.6372 2.89375 16.3685C2.89375 12.0935 2.9125 11.5872 2.9875 9.90598C3.05625 8.34348 3.31875 7.49973 3.5375 6.93723C3.825 6.19348 4.175 5.65598 4.73125 5.09973C5.29375 4.53723 5.825 4.19348 6.56875 3.90598C7.13125 3.68723 7.98125 3.42473 9.5375 3.35598C11.2188 3.28098 11.725 3.26223 16 3.26223ZM16 0.380981C11.6563 0.380981 11.1125 0.399731 9.40625 0.474731C7.70625 0.549731 6.5375 0.824731 5.525 1.21848C4.46875 1.63098 3.575 2.17473 2.6875 3.06848C1.79375 3.95598 1.25 4.84973 0.8375 5.89973C0.44375 6.91848 0.16875 8.08098 0.09375 9.78098C0.01875 11.4935 0 12.0372 0 16.381C0 20.7247 0.01875 21.2685 0.09375 22.9747C0.16875 24.6747 0.44375 25.8435 0.8375 26.856C1.25 27.9122 1.79375 28.806 2.6875 29.6935C3.575 30.581 4.46875 31.131 5.51875 31.5372C6.5375 31.931 7.7 32.206 9.4 32.281C11.1063 32.356 11.65 32.3747 15.9938 32.3747C20.3375 32.3747 20.8813 32.356 22.5875 32.281C24.2875 32.206 25.4563 31.931 26.4688 31.5372C27.5188 31.131 28.4125 30.581 29.3 29.6935C30.1875 28.806 30.7375 27.9122 31.1438 26.8622C31.5375 25.8435 31.8125 24.681 31.8875 22.981C31.9625 21.2747 31.9813 20.731 31.9813 16.3872C31.9813 12.0435 31.9625 11.4997 31.8875 9.79348C31.8125 8.09348 31.5375 6.92473 31.1438 5.91223C30.75 4.84973 30.2063 3.95598 29.3125 3.06848C28.425 2.18098 27.5313 1.63098 26.4813 1.22473C25.4625 0.830981 24.3 0.555981 22.6 0.480981C20.8875 0.399731 20.3438 0.380981 16 0.380981Z" fill="black"/>
<path d="M16 8.16223C11.4625 8.16223 7.78125 11.8435 7.78125 16.381C7.78125 20.9185 11.4625 24.5997 16 24.5997C20.5375 24.5997 24.2188 20.9185 24.2188 16.381C24.2188 11.8435 20.5375 8.16223 16 8.16223ZM16 21.7122C13.0563 21.7122 10.6687 19.3247 10.6687 16.381C10.6687 13.4372 13.0563 11.0497 16 11.0497C18.9438 11.0497 21.3312 13.4372 21.3312 16.381C21.3312 19.3247 18.9438 21.7122 16 21.7122Z" fill="black"/>
<path d="M26.4625 7.83721C26.4625 8.89971 25.6 9.75596 24.5438 9.75596C23.4813 9.75596 22.625 8.89346 22.625 7.83721C22.625 6.77471 23.4875 5.91846 24.5438 5.91846C25.6 5.91846 26.4625 6.78096 26.4625 7.83721Z" fill="black"/>
</g>
<defs>
<clipPath id="clip0_2279_298">
<rect width="32" height="32" fill="white" transform="translate(0 0.380981)"/>
</clipPath>
</defs>
</svg>
