<svg width="623" height="52" viewBox="0 0 623 52" fill="none" xmlns="http://www.w3.org/2000/svg">
<path d="M73.28 13.7328H62.24L55.76 50.2229H40.56L47.04 13.7328H36.08L38.4 1.1771H75.6L73.28 13.7328ZM38.08 49.9875L4.16 46.4562H38.72L38.08 49.9875ZM40.8 34.8421L6.88 31.3108H41.44L40.8 34.8421ZM42.16 27.3087L8.24 23.7774H42.8L42.16 27.3087ZM43.52 19.7753L9.6 16.244H44.16L43.52 19.7753ZM39.44 42.3756L5.52 38.8443H40.08L39.44 42.3756ZM33.92 12.2418L0 8.71053H34.48L33.92 12.2418ZM35.2 4.7084L1.36 1.1771H35.84L35.2 4.7084Z" fill="black"/>
<path d="M88.845 50.2229L97.645 1.1771H112.845L104.045 50.2229H88.845ZM86.445 49.9875L52.525 46.4562H87.085L86.445 49.9875ZM89.165 34.8421L55.245 31.3108H89.805L89.165 34.8421ZM90.525 27.3087L56.605 23.7774H91.165L90.525 27.3087ZM91.885 19.7753L57.965 16.244H92.525L91.885 19.7753ZM93.245 12.2418L59.325 8.71053H93.805L93.245 12.2418ZM87.805 42.3756L53.885 38.8443H88.445L87.805 42.3756ZM94.525 4.7084L60.685 1.1771H95.165L94.525 4.7084Z" fill="black"/>
<path d="M126.598 49.9875L92.8375 46.4562H127.397L126.598 49.9875ZM128.357 42.3756L94.6775 38.8443H129.238L128.357 42.3756ZM130.197 34.8421L96.5175 31.3108H130.997L130.197 34.8421ZM131.958 27.3087L98.3575 23.7774H132.837L131.958 27.3087ZM133.798 19.7753L100.198 16.244H134.598L133.798 19.7753ZM135.557 12.2418L102.037 8.71053H136.438L135.557 12.2418ZM137.398 4.7084L103.878 1.1771H138.197L137.398 4.7084ZM144.837 50.2229H128.997L140.678 1.1771H160.518L161.958 26.1316H162.518L172.918 1.1771H192.758L186.838 50.2229H170.917L174.277 26.4455H173.717L163.717 50.2229H152.118L150.438 26.4455H150.038L144.837 50.2229Z" fill="black"/>
<path d="M244.473 1.1771C248.312 1.1771 251.086 1.83105 252.792 3.13893C254.553 4.44682 255.433 6.46097 255.433 9.18138C255.433 13.1574 254.526 16.4271 252.713 18.9905C250.953 21.554 248.792 23.1496 246.232 23.7774L246.152 24.2482C250.952 25.1376 253.353 28.2504 253.353 33.5866C253.353 38.295 252.046 42.2448 249.432 45.436C246.819 48.6273 243.139 50.2229 238.393 50.2229H211.033L219.833 1.1771H244.473ZM235.673 30.6831H229.673L228.232 38.6873H234.152C235.486 38.6873 236.499 38.1642 237.193 37.1179C237.886 36.0716 238.232 34.7375 238.232 33.1157C238.232 31.4939 237.379 30.6831 235.673 30.6831ZM237.913 11.9279H233.113L231.753 19.226H236.473C238.926 19.226 240.152 17.5257 240.152 14.1252C240.152 12.6604 239.406 11.9279 237.913 11.9279ZM208.633 49.9875L174.712 46.4562H209.273L208.633 49.9875ZM211.353 34.8421L177.432 31.3108H211.993L211.353 34.8421ZM212.712 27.3087L178.792 23.7774H213.353L212.712 27.3087ZM214.072 19.7753L180.152 16.244H214.712L214.072 19.7753ZM215.432 12.2418L181.512 8.71053H215.993L215.432 12.2418ZM209.993 42.3756L176.072 38.8443H210.633L209.993 42.3756ZM216.712 4.7084L182.872 1.1771H217.353L216.712 4.7084Z" fill="black"/>
<path d="M275.706 19.7753L241.786 16.244H276.346L275.706 19.7753ZM274.346 27.3087L240.506 23.7774H274.986L274.346 27.3087ZM278.426 4.7084L244.586 1.1771H279.066L278.426 4.7084ZM243.226 8.71053H277.706L277.066 12.2418L243.226 8.71053ZM273.626 31.3108C273.412 33.0373 273.279 34.2144 273.226 34.8421L239.386 31.3108H273.626ZM273.066 38.8443C273.066 40.0998 273.146 41.277 273.306 42.3756L239.466 38.8443H273.066ZM274.426 46.4562C275.119 47.921 275.972 49.0981 276.986 49.9875L243.146 46.4562H274.426ZM295.546 37.9811C297.412 37.9811 298.746 37.7457 299.546 37.2748C300.346 36.7517 300.906 35.6007 301.226 33.822L307.146 1.1771H322.346L317.386 28.7212C316.586 33.168 315.652 36.7517 314.586 39.4721C313.572 42.1925 312.132 44.4944 310.266 46.3777C308.399 48.2611 306.079 49.569 303.306 50.3014C300.586 51.0338 297.119 51.4 292.906 51.4C286.452 51.4 281.919 50.4583 279.306 48.575C276.746 46.6393 275.466 43.3434 275.466 38.6873C275.466 36.1239 275.839 32.8018 276.586 28.7212L281.546 1.1771H296.746L290.106 37.9811H295.546Z" fill="black"/>
<path d="M337.182 25.3469C337.075 25.7654 336.969 26.3409 336.862 27.0733L305.422 23.7774H337.422L337.182 25.3469ZM336.302 31.3108C336.142 32.5141 336.062 33.6127 336.062 34.6067L304.542 31.3108H336.302ZM339.342 16.244L338.382 19.4614L307.342 16.244H339.342ZM336.142 38.8443C336.355 40.3091 336.542 41.4077 336.702 42.1402L305.582 38.8443H336.142ZM342.622 8.71053C341.875 10.0707 341.342 11.1171 341.022 11.8495L311.102 8.71053H342.622ZM338.542 46.4562C339.235 47.6594 340.035 48.6273 340.942 49.3597L313.262 46.4562H338.542ZM350.222 1.1771C348.675 2.11878 347.475 2.98199 346.622 3.76672L322.142 1.1771H350.222ZM357.262 51.4C350.542 51.4 345.715 50.1183 342.782 47.5548C339.902 44.9914 338.462 41.0415 338.462 35.7053C338.462 33.4558 338.835 30.1337 339.582 25.7392C341.182 16.741 343.929 10.2015 347.822 6.12092C351.769 2.04031 357.982 0 366.462 0C368.435 0 370.675 0.209263 373.182 0.627788C375.742 0.993998 377.609 1.46484 378.782 2.04031L374.302 14.0467C371.155 13.3143 368.195 12.9481 365.422 12.9481C362.702 12.9481 360.755 13.2097 359.582 13.7328C358.409 14.256 357.689 15.3023 357.422 16.8718L353.742 37.4318C355.662 37.8503 357.635 38.0595 359.662 38.0595C363.982 38.0595 367.929 37.4318 371.502 36.1762L370.222 49.3597C366.809 50.7199 362.489 51.4 357.262 51.4Z" fill="black"/>
<path d="M423.151 50.2229H392.751L401.551 1.1771H416.751L410.191 37.6672H425.391L423.151 50.2229ZM390.351 49.9875L356.431 46.4562H390.991L390.351 49.9875ZM393.071 34.8421L359.151 31.3108H393.711L393.071 34.8421ZM394.431 27.3087L360.511 23.7774H395.071L394.431 27.3087ZM395.791 19.7753L361.871 16.244H396.431L395.791 19.7753ZM397.151 12.2418L363.231 8.71053H397.711L397.151 12.2418ZM391.711 42.3756L357.791 38.8443H392.351L391.711 42.3756ZM398.431 4.7084L364.591 1.1771H399.071L398.431 4.7084Z" fill="black"/>
<path d="M464.197 37.9811C466.277 37.9811 467.824 37.7457 468.837 37.2748C469.85 36.7517 470.517 35.6007 470.837 33.822L474.517 13.4189H468.117C466.09 13.4189 464.57 13.6805 463.557 14.2037C462.544 14.6745 461.877 15.7993 461.557 17.578L457.877 37.9811H464.197ZM470.757 0C477.53 0 482.357 1.30789 485.237 3.92367C488.117 6.48713 489.557 10.4631 489.557 15.8516C489.557 21.2401 488.677 26.8902 486.917 32.8018C485.21 38.6612 482.464 43.2388 478.677 46.5347C474.944 49.7782 469.45 51.4 462.197 51.4C454.997 51.4 449.957 50.1183 447.077 47.5548C444.197 44.939 442.757 40.9369 442.757 35.5484C442.757 32.9849 443.13 29.6106 443.877 25.4253C444.624 21.1878 445.61 17.5519 446.837 14.5176C448.064 11.4309 449.717 8.76285 451.797 6.51328C455.797 2.17109 462.117 0 470.757 0ZM441.557 25.3469C441.45 25.7654 441.344 26.3409 441.237 27.0733L409.797 23.7774H441.797L441.557 25.3469ZM440.677 31.3108C440.517 32.5141 440.437 33.6127 440.437 34.6067L408.917 31.3108H440.677ZM443.717 16.244L442.757 19.4614L411.717 16.244H443.717ZM440.517 38.8443C440.73 40.3091 440.917 41.4077 441.077 42.1402L409.957 38.8443H440.517ZM446.997 8.71053C446.25 10.0707 445.717 11.1171 445.397 11.8495L415.477 8.71053H446.997ZM442.917 46.4562C443.61 47.6594 444.41 48.6273 445.317 49.3597L417.637 46.4562H442.917ZM454.597 1.1771C453.05 2.11878 451.85 2.98199 450.997 3.76672L426.517 1.1771H454.597Z" fill="black"/>
<path d="M510.471 19.7753L476.551 16.244H511.111L510.471 19.7753ZM509.111 27.3087L475.271 23.7774H509.751L509.111 27.3087ZM513.191 4.7084L479.351 1.1771H513.831L513.191 4.7084ZM477.991 8.71053H512.471L511.831 12.2418L477.991 8.71053ZM508.391 31.3108C508.178 33.0373 508.045 34.2144 507.991 34.8421L474.151 31.3108H508.391ZM507.831 38.8443C507.831 40.0998 507.911 41.277 508.071 42.3756L474.231 38.8443H507.831ZM509.191 46.4562C509.885 47.921 510.738 49.0981 511.751 49.9875L477.911 46.4562H509.191ZM530.311 37.9811C532.178 37.9811 533.511 37.7457 534.311 37.2748C535.111 36.7517 535.671 35.6007 535.991 33.822L541.911 1.1771H557.111L552.151 28.7212C551.351 33.168 550.418 36.7517 549.351 39.4721C548.338 42.1925 546.898 44.4944 545.031 46.3777C543.165 48.2611 540.845 49.569 538.071 50.3014C535.351 51.0338 531.885 51.4 527.671 51.4C521.218 51.4 516.685 50.4583 514.071 48.575C511.511 46.6393 510.231 43.3434 510.231 38.6873C510.231 36.1239 510.605 32.8018 511.351 28.7212L516.311 1.1771H531.511L524.871 37.9811H530.311Z" fill="black"/>
<path d="M602.987 1.1771C609.867 1.1771 614.747 2.38036 617.628 4.78687C620.561 7.14107 622.028 10.9863 622.028 16.3224C622.028 19.0429 621.708 22.1818 621.068 25.7392C619.468 34.5282 616.721 40.8061 612.828 44.5728C608.987 48.3395 602.774 50.2229 594.188 50.2229H572.908L581.708 1.1771H602.987ZM600.908 13.7328H594.588L590.347 37.6672H596.667C598.747 37.6672 600.294 37.4318 601.307 36.9609C602.321 36.4378 602.987 35.2868 603.307 33.5081L606.107 17.8919C606.161 17.578 606.188 17.1595 606.188 16.6363C606.188 15.4331 605.761 14.6483 604.908 14.2821C604.054 13.9159 602.721 13.7328 600.908 13.7328ZM570.508 49.9875L536.588 46.4562H571.148L570.508 49.9875ZM573.227 34.8421L539.307 31.3108H573.867L573.227 34.8421ZM574.588 27.3087L540.667 23.7774H575.227L574.588 27.3087ZM575.948 19.7753L542.028 16.244H576.588L575.948 19.7753ZM577.307 12.2418L543.388 8.71053H577.867L577.307 12.2418ZM571.867 42.3756L537.948 38.8443H572.508L571.867 42.3756ZM578.588 4.7084L544.747 1.1771H579.227L578.588 4.7084Z" fill="black"/>
</svg>
